<svg width="22" height="16" viewBox="0 0 22 16" fill="none" xmlns="http://www.w3.org/2000/svg">
<path d="M6.97518e-09 4.46064L10.654 9.2843C10.7609 9.33267 10.8795 9.35793 11 9.35793C11.1205 9.35793 11.2391 9.33267 11.346 9.2843L22 4.46151V12.8405C22.0001 13.5631 21.6824 14.2584 21.1123 14.7837C20.5422 15.309 19.7628 15.6244 18.934 15.6654L18.75 15.6697H3.25C2.41986 15.6698 1.62117 15.3933 1.01777 14.8969C0.414367 14.4006 0.0519987 13.7221 0.00500012 13.0006L6.97518e-09 12.8405V4.46064ZM3.25 6.07217e-09H18.75C19.5801 -4.7311e-05 20.3788 0.276443 20.9822 0.772753C21.5856 1.26906 21.948 1.94756 21.995 2.66907L22 2.82925V2.98943L11 7.96891L6.97518e-09 2.98943V2.82925C-5.43467e-05 2.10658 0.317554 1.41129 0.887672 0.886008C1.45779 0.360723 2.23719 0.0452669 3.066 0.0043528L3.25 6.07217e-09H18.75H3.25Z" fill="#ADADAD"/>
</svg>
