<svg width="11" height="15" viewBox="0 0 11 15" fill="none" xmlns="http://www.w3.org/2000/svg">
<path d="M1.85678 0.313753L2.7022 0.0677898C3.49576 -0.162443 4.34197 0.210076 4.68218 0.937955L5.3571 2.38799C5.65096 3.01934 5.48831 3.76224 4.95325 4.22413L3.46512 5.50972C3.55626 6.27907 3.84069 7.03626 4.31683 7.7813C4.76922 8.50218 5.37598 9.13312 6.10117 9.63675L7.88865 9.09334C8.56671 8.88813 9.30449 9.1248 9.71934 9.68036L10.6881 10.9745C11.1713 11.6209 11.0849 12.5118 10.4854 13.0595L9.8427 13.6465C9.20314 14.2307 8.28936 14.443 7.44472 14.2028C5.44981 13.6365 3.61598 11.9555 1.94242 9.15984C0.266508 6.35986 -0.325129 3.98318 0.168295 2.03263C0.375721 1.2118 1.01764 0.55757 1.85678 0.313753Z" fill="#616161"/>
</svg>
