<svg width="14" height="14" viewBox="0 0 14 14" fill="none" xmlns="http://www.w3.org/2000/svg">
<path d="M13.44 0H0.56C0.25025 0 0 0.25025 0 0.56V13.44C0 13.7498 0.25025 14 0.56 14H13.44C13.7498 14 14 13.7498 14 13.44V0.56C14 0.25025 13.7498 0 13.44 0ZM10.7677 5.06975C10.773 5.152 10.773 5.23775 10.773 5.32175C10.773 7.89075 8.8165 10.85 5.24125 10.85C4.13875 10.85 3.11675 10.5297 2.25575 9.9785C2.41325 9.996 2.56375 10.003 2.72475 10.003C3.63475 10.003 4.47125 9.695 5.138 9.1735C4.284 9.156 3.5665 8.596 3.3215 7.826C3.62075 7.86975 3.89025 7.86975 4.19825 7.791C3.75852 7.70166 3.36328 7.46284 3.07968 7.11512C2.79608 6.7674 2.6416 6.33221 2.6425 5.8835V5.859C2.89975 6.00425 3.2025 6.0935 3.51925 6.10575C3.25297 5.92829 3.0346 5.68787 2.88349 5.4058C2.73239 5.12374 2.65322 4.80874 2.653 4.48875C2.653 4.1265 2.7475 3.79575 2.91725 3.50875C3.40533 4.10959 4.01438 4.601 4.70481 4.95104C5.39525 5.30108 6.15161 5.50192 6.92475 5.5405C6.65 4.21925 7.637 3.15 8.8235 3.15C9.3835 3.15 9.8875 3.3845 10.2428 3.7625C10.682 3.68025 11.102 3.51575 11.4765 3.29525C11.3313 3.745 11.0267 4.12475 10.6225 4.3645C11.0145 4.3225 11.3925 4.214 11.7425 4.06175C11.4783 4.45025 11.1475 4.795 10.7677 5.06975Z" fill="#616161"/>
</svg>
