<svg width="17" height="19" viewBox="0 0 17 19" fill="none" xmlns="http://www.w3.org/2000/svg">
<path d="M4.51103 0.101133C5.1203 -0.0555779 5.77411 -0.0295429 6.36361 0.174904C6.95312 0.379351 7.44276 0.749875 7.75103 1.2248L7.85546 1.40178L8.7758 3.14904C9.05554 3.67938 9.14634 4.26817 9.03692 4.84218C8.9275 5.4162 8.62268 5.95011 8.16038 6.3775L7.97659 6.53429L6.52298 7.69002C6.26122 7.90145 6.45754 8.71985 7.40573 10.1191C8.25645 11.3782 8.95124 11.9661 9.29097 11.9982H9.35084L9.42463 11.9863L12.279 11.2416C12.6626 11.1412 13.0719 11.1372 13.4581 11.2301C13.8443 11.323 14.1909 11.5088 14.4566 11.7654L14.5847 11.902L16.4727 14.1351C16.8432 14.5726 17.028 15.1048 16.9966 15.6439C16.9652 16.183 16.7195 16.6969 16.3001 17.101L16.1302 17.2507L15.3741 17.8612C14.6965 18.4087 13.8488 18.7787 12.9318 18.9271C12.0149 19.0756 11.0672 18.9962 10.2016 18.6986C7.50737 17.7721 5.05962 15.6555 2.83604 12.37C0.608275 9.0762 -0.317637 6.20527 0.0958907 3.74651C0.221148 3.00313 0.580118 2.30257 1.13466 1.71927C1.68921 1.13598 2.41861 0.691726 3.24539 0.433719L3.51411 0.357699L4.51103 0.101133Z" fill="#ADADAD"/>
</svg>
