<svg width="14" height="14" viewBox="0 0 14 14" fill="none" xmlns="http://www.w3.org/2000/svg">
<path d="M13.44 0H0.56C0.25025 0 0 0.25025 0 0.56V13.44C0 13.7498 0.25025 14 0.56 14H13.44C13.7498 14 14 13.7498 14 13.44V0.56C14 0.25025 13.7498 0 13.44 0ZM11.823 4.08625H10.7048C9.828 4.08625 9.65825 4.50275 9.65825 5.11525V6.4645H11.7513L11.4783 8.57675H9.65825V14H7.476V8.5785H5.65075V6.4645H7.476V4.907C7.476 3.09925 8.58025 2.114 10.1938 2.114C10.9672 2.114 11.6305 2.17175 11.8247 2.198V4.08625H11.823Z" fill="#616161"/>
</svg>
