<svg width="14" height="14" viewBox="0 0 14 14" fill="none" xmlns="http://www.w3.org/2000/svg">
<path d="M13.5183 4.00288C13.5107 3.43344 13.4039 2.86966 13.2027 2.33677C13.0283 1.88727 12.7618 1.47905 12.4204 1.13818C12.079 0.797315 11.67 0.531299 11.2198 0.357132C10.6929 0.159662 10.1362 0.0528865 9.57351 0.0413521C8.84902 0.00902232 8.61932 0 6.78023 0C4.94114 0 4.70542 5.04159e-08 3.9862 0.0413521C3.42375 0.0529713 2.86734 0.159745 2.34066 0.357132C1.89035 0.531178 1.48138 0.797151 1.13993 1.13803C0.798479 1.47892 0.532063 1.8872 0.357726 2.33677C0.159532 2.86241 0.0528103 3.41802 0.0421741 3.97957C0.0097904 4.70361 0 4.93293 0 6.76896C0 8.60499 -5.61109e-09 8.83957 0.0421741 9.55834C0.0534707 10.1207 0.159659 10.6756 0.357726 11.2027C0.532355 11.6521 0.79897 12.0602 1.14053 12.4009C1.4821 12.7417 1.8911 13.0075 2.34141 13.1815C2.86666 13.3869 3.42316 13.5014 3.98695 13.5199C4.7122 13.5522 4.9419 13.562 6.78099 13.562C8.62008 13.562 8.8558 13.562 9.57502 13.5199C10.1377 13.5088 10.6944 13.4023 11.2213 13.2048C11.6714 13.0305 12.0802 12.7644 12.4216 12.4235C12.7631 12.0827 13.0296 11.6746 13.2042 11.2252C13.4023 10.6989 13.5085 10.144 13.5198 9.5809C13.5522 8.85761 13.562 8.6283 13.562 6.79151C13.5605 4.95548 13.5605 4.72241 13.5183 4.00288ZM6.77571 10.241C4.85228 10.241 3.29409 8.68544 3.29409 6.7652C3.29409 4.84496 4.85228 3.28937 6.77571 3.28937C7.6991 3.28937 8.58466 3.65557 9.23759 4.30742C9.89052 4.95926 10.2573 5.84335 10.2573 6.7652C10.2573 7.68704 9.89052 8.57113 9.23759 9.22298C8.58466 9.87482 7.6991 10.241 6.77571 10.241ZM10.3959 3.9713C9.9463 3.9713 9.58405 3.60891 9.58405 3.1608C9.58405 3.05441 9.60504 2.94907 9.64582 2.85078C9.6866 2.75249 9.74638 2.66318 9.82173 2.58796C9.89708 2.51273 9.98654 2.45306 10.085 2.41234C10.1834 2.37163 10.289 2.35068 10.3955 2.35068C10.5021 2.35068 10.6076 2.37163 10.7061 2.41234C10.8045 2.45306 10.894 2.51273 10.9693 2.58796C11.0447 2.66318 11.1045 2.75249 11.1452 2.85078C11.186 2.94907 11.207 3.05441 11.207 3.1608C11.207 3.60891 10.844 3.9713 10.3959 3.9713Z" fill="#616161"/>
<path d="M6.78026 9.02321C8.0293 9.02321 9.04184 8.01235 9.04184 6.76539C9.04184 5.51843 8.0293 4.50757 6.78026 4.50757C5.53122 4.50757 4.51868 5.51843 4.51868 6.76539C4.51868 8.01235 5.53122 9.02321 6.78026 9.02321Z" fill="#616161"/>
</svg>
