<svg width="81" height="120" viewBox="0 0 81 120" fill="none" xmlns="http://www.w3.org/2000/svg">
<path d="M6.594 1.242V2.278H2.352V5.568H5.796V6.604H2.352V11H1.078V1.242H6.594ZM7.65669 7.136C7.65669 6.352 7.81535 5.666 8.13269 5.078C8.45002 4.48067 8.88402 4.01867 9.43469 3.692C9.99469 3.36533 10.6154 3.202 11.2967 3.202C11.9687 3.202 12.552 3.34667 13.0467 3.636C13.5414 3.92533 13.91 4.28933 14.1527 4.728V3.328H15.4407V11H14.1527V9.572C13.9007 10.02 13.5227 10.3933 13.0187 10.692C12.524 10.9813 11.9454 11.126 11.2827 11.126C10.6014 11.126 9.98535 10.958 9.43469 10.622C8.88402 10.286 8.45002 9.81467 8.13269 9.208C7.81535 8.60133 7.65669 7.91067 7.65669 7.136ZM14.1527 7.15C14.1527 6.57133 14.036 6.06733 13.8027 5.638C13.5694 5.20867 13.252 4.882 12.8507 4.658C12.4587 4.42467 12.0247 4.308 11.5487 4.308C11.0727 4.308 10.6387 4.42 10.2467 4.644C9.85469 4.868 9.54202 5.19467 9.30869 5.624C9.07535 6.05333 8.95869 6.55733 8.95869 7.136C8.95869 7.724 9.07535 8.23733 9.30869 8.676C9.54202 9.10533 9.85469 9.43667 10.2467 9.67C10.6387 9.894 11.0727 10.006 11.5487 10.006C12.0247 10.006 12.4587 9.894 12.8507 9.67C13.252 9.43667 13.5694 9.10533 13.8027 8.676C14.036 8.23733 14.1527 7.72867 14.1527 7.15ZM17.1176 7.15C17.1176 6.35667 17.2763 5.666 17.5936 5.078C17.911 4.48067 18.3496 4.01867 18.9096 3.692C19.479 3.36533 20.1276 3.202 20.8556 3.202C21.7983 3.202 22.573 3.43067 23.1796 3.888C23.7956 4.34533 24.2016 4.98 24.3976 5.792H23.0256C22.895 5.32533 22.6383 4.95667 22.2556 4.686C21.8823 4.41533 21.4156 4.28 20.8556 4.28C20.1276 4.28 19.5396 4.532 19.0916 5.036C18.6436 5.53067 18.4196 6.23533 18.4196 7.15C18.4196 8.074 18.6436 8.788 19.0916 9.292C19.5396 9.796 20.1276 10.048 20.8556 10.048C21.4156 10.048 21.8823 9.91733 22.2556 9.656C22.629 9.39467 22.8856 9.02133 23.0256 8.536H24.3976C24.1923 9.32 23.7816 9.95 23.1656 10.426C22.5496 10.8927 21.7796 11.126 20.8556 11.126C20.1276 11.126 19.479 10.9627 18.9096 10.636C18.3496 10.3093 17.911 9.84733 17.5936 9.25C17.2763 8.65267 17.1176 7.95267 17.1176 7.15ZM33.0975 6.87C33.0975 7.11267 33.0835 7.36933 33.0555 7.64H26.9235C26.9702 8.396 27.2269 8.98867 27.6935 9.418C28.1695 9.838 28.7435 10.048 29.4155 10.048C29.9662 10.048 30.4235 9.922 30.7875 9.67C31.1609 9.40867 31.4222 9.06333 31.5715 8.634H32.9435C32.7382 9.37133 32.3275 9.97333 31.7115 10.44C31.0955 10.8973 30.3302 11.126 29.4155 11.126C28.6875 11.126 28.0342 10.9627 27.4555 10.636C26.8862 10.3093 26.4382 9.84733 26.1115 9.25C25.7849 8.64333 25.6215 7.94333 25.6215 7.15C25.6215 6.35667 25.7802 5.66133 26.0975 5.064C26.4149 4.46667 26.8582 4.00933 27.4275 3.692C28.0062 3.36533 28.6689 3.202 29.4155 3.202C30.1435 3.202 30.7875 3.36067 31.3475 3.678C31.9075 3.99533 32.3369 4.434 32.6355 4.994C32.9435 5.54467 33.0975 6.17 33.0975 6.87ZM31.7815 6.604C31.7815 6.11867 31.6742 5.70333 31.4595 5.358C31.2449 5.00333 30.9509 4.73733 30.5775 4.56C30.2135 4.37333 29.8075 4.28 29.3595 4.28C28.7155 4.28 28.1649 4.48533 27.7075 4.896C27.2595 5.30667 27.0029 5.876 26.9375 6.604H31.7815ZM36.0532 4.756C36.3145 4.29867 36.6972 3.92533 37.2012 3.636C37.7052 3.34667 38.2792 3.202 38.9232 3.202C39.6138 3.202 40.2345 3.36533 40.7852 3.692C41.3358 4.01867 41.7698 4.48067 42.0872 5.078C42.4045 5.666 42.5632 6.352 42.5632 7.136C42.5632 7.91067 42.4045 8.60133 42.0872 9.208C41.7698 9.81467 41.3312 10.286 40.7712 10.622C40.2205 10.958 39.6045 11.126 38.9232 11.126C38.2605 11.126 37.6772 10.9813 37.1732 10.692C36.6785 10.4027 36.3052 10.034 36.0532 9.586V11H34.7792V0.64H36.0532V4.756ZM41.2612 7.136C41.2612 6.55733 41.1445 6.05333 40.9112 5.624C40.6778 5.19467 40.3605 4.868 39.9592 4.644C39.5672 4.42 39.1332 4.308 38.6572 4.308C38.1905 4.308 37.7565 4.42467 37.3552 4.658C36.9632 4.882 36.6458 5.21333 36.4032 5.652C36.1698 6.08133 36.0532 6.58067 36.0532 7.15C36.0532 7.72867 36.1698 8.23733 36.4032 8.676C36.6458 9.10533 36.9632 9.43667 37.3552 9.67C37.7565 9.894 38.1905 10.006 38.6572 10.006C39.1332 10.006 39.5672 9.894 39.9592 9.67C40.3605 9.43667 40.6778 9.10533 40.9112 8.676C41.1445 8.23733 41.2612 7.724 41.2612 7.136ZM47.5861 11.126C46.8674 11.126 46.2141 10.9627 45.6261 10.636C45.0474 10.3093 44.5901 9.84733 44.2541 9.25C43.9274 8.64333 43.7641 7.94333 43.7641 7.15C43.7641 6.366 43.9321 5.67533 44.2681 5.078C44.6134 4.47133 45.0801 4.00933 45.6681 3.692C46.2561 3.36533 46.9141 3.202 47.6421 3.202C48.3701 3.202 49.0281 3.36533 49.6161 3.692C50.2041 4.00933 50.6661 4.46667 51.0021 5.064C51.3474 5.66133 51.5201 6.35667 51.5201 7.15C51.5201 7.94333 51.3428 8.64333 50.9881 9.25C50.6428 9.84733 50.1714 10.3093 49.5741 10.636C48.9768 10.9627 48.3141 11.126 47.5861 11.126ZM47.5861 10.006C48.0434 10.006 48.4728 9.89867 48.8741 9.684C49.2754 9.46933 49.5974 9.14733 49.8401 8.718C50.0921 8.28867 50.2181 7.766 50.2181 7.15C50.2181 6.534 50.0968 6.01133 49.8541 5.582C49.6114 5.15267 49.2941 4.83533 48.9021 4.63C48.5101 4.41533 48.0854 4.308 47.6281 4.308C47.1614 4.308 46.7321 4.41533 46.3401 4.63C45.9574 4.83533 45.6494 5.15267 45.4161 5.582C45.1828 6.01133 45.0661 6.534 45.0661 7.15C45.0661 7.77533 45.1781 8.30267 45.4021 8.732C45.6354 9.16133 45.9434 9.48333 46.3261 9.698C46.7088 9.90333 47.1288 10.006 47.5861 10.006ZM56.5412 11.126C55.8225 11.126 55.1692 10.9627 54.5812 10.636C54.0025 10.3093 53.5452 9.84733 53.2092 9.25C52.8825 8.64333 52.7192 7.94333 52.7192 7.15C52.7192 6.366 52.8872 5.67533 53.2232 5.078C53.5685 4.47133 54.0352 4.00933 54.6232 3.692C55.2112 3.36533 55.8692 3.202 56.5972 3.202C57.3252 3.202 57.9832 3.36533 58.5712 3.692C59.1592 4.00933 59.6212 4.46667 59.9572 5.064C60.3025 5.66133 60.4752 6.35667 60.4752 7.15C60.4752 7.94333 60.2979 8.64333 59.9432 9.25C59.5979 9.84733 59.1265 10.3093 58.5292 10.636C57.9319 10.9627 57.2692 11.126 56.5412 11.126ZM56.5412 10.006C56.9985 10.006 57.4279 9.89867 57.8292 9.684C58.2305 9.46933 58.5525 9.14733 58.7952 8.718C59.0472 8.28867 59.1732 7.766 59.1732 7.15C59.1732 6.534 59.0519 6.01133 58.8092 5.582C58.5665 5.15267 58.2492 4.83533 57.8572 4.63C57.4652 4.41533 57.0405 4.308 56.5832 4.308C56.1165 4.308 55.6872 4.41533 55.2952 4.63C54.9125 4.83533 54.6045 5.15267 54.3712 5.582C54.1379 6.01133 54.0212 6.534 54.0212 7.15C54.0212 7.77533 54.1332 8.30267 54.3572 8.732C54.5905 9.16133 54.8985 9.48333 55.2812 9.698C55.6639 9.90333 56.0839 10.006 56.5412 10.006ZM66.4343 11L63.4243 7.612V11H62.1503V0.64H63.4243V6.73L66.3783 3.328H68.1563L64.5443 7.15L68.1703 11H66.4343ZM7.084 37.242V38.278H4.424V47H3.15V38.278H0.476V37.242H7.084ZM18.8722 39.328L16.4782 47H15.1622L13.3142 40.91L11.4662 47H10.1502L7.74222 39.328H9.04422L10.8082 45.768L12.7122 39.328H14.0142L15.8762 45.782L17.6122 39.328H18.8722ZM20.7946 38.082C20.5519 38.082 20.3466 37.998 20.1786 37.83C20.0106 37.662 19.9266 37.4567 19.9266 37.214C19.9266 36.9713 20.0106 36.766 20.1786 36.598C20.3466 36.43 20.5519 36.346 20.7946 36.346C21.0279 36.346 21.2239 36.43 21.3826 36.598C21.5506 36.766 21.6346 36.9713 21.6346 37.214C21.6346 37.4567 21.5506 37.662 21.3826 37.83C21.2239 37.998 21.0279 38.082 20.7946 38.082ZM21.4106 39.328V47H20.1366V39.328H21.4106ZM25.1359 40.378V44.9C25.1359 45.2733 25.2152 45.5393 25.3739 45.698C25.5326 45.8473 25.8079 45.922 26.1999 45.922H27.1379V47H25.9899C25.2806 47 24.7486 46.8367 24.3939 46.51C24.0392 46.1833 23.8619 45.6467 23.8619 44.9V40.378H22.8679V39.328H23.8619V37.396H25.1359V39.328H27.1379V40.378H25.1359ZM30.2355 40.378V44.9C30.2355 45.2733 30.3148 45.5393 30.4735 45.698C30.6322 45.8473 30.9075 45.922 31.2995 45.922H32.2375V47H31.0895C30.3802 47 29.8482 46.8367 29.4935 46.51C29.1388 46.1833 28.9615 45.6467 28.9615 44.9V40.378H27.9675V39.328H28.9615V37.396H30.2355V39.328H32.2375V40.378H30.2355ZM40.7811 42.87C40.7811 43.1127 40.7671 43.3693 40.7391 43.64H34.6071C34.6538 44.396 34.9105 44.9887 35.3771 45.418C35.8531 45.838 36.4271 46.048 37.0991 46.048C37.6498 46.048 38.1071 45.922 38.4711 45.67C38.8445 45.4087 39.1058 45.0633 39.2551 44.634H40.6271C40.4218 45.3713 40.0111 45.9733 39.3951 46.44C38.7791 46.8973 38.0138 47.126 37.0991 47.126C36.3711 47.126 35.7178 46.9627 35.1391 46.636C34.5698 46.3093 34.1218 45.8473 33.7951 45.25C33.4685 44.6433 33.3051 43.9433 33.3051 43.15C33.3051 42.3567 33.4638 41.6613 33.7811 41.064C34.0985 40.4667 34.5418 40.0093 35.1111 39.692C35.6898 39.3653 36.3525 39.202 37.0991 39.202C37.8271 39.202 38.4711 39.3607 39.0311 39.678C39.5911 39.9953 40.0205 40.434 40.3191 40.994C40.6271 41.5447 40.7811 42.17 40.7811 42.87ZM39.4651 42.604C39.4651 42.1187 39.3578 41.7033 39.1431 41.358C38.9285 41.0033 38.6345 40.7373 38.2611 40.56C37.8971 40.3733 37.4911 40.28 37.0431 40.28C36.3991 40.28 35.8485 40.4853 35.3911 40.896C34.9431 41.3067 34.6865 41.876 34.6211 42.604H39.4651ZM43.7368 40.574C43.9608 40.1353 44.2781 39.7947 44.6888 39.552C45.1088 39.3093 45.6174 39.188 46.2148 39.188V40.504H45.8788C44.4508 40.504 43.7368 41.2787 43.7368 42.828V47H42.4628V39.328H43.7368V40.574ZM2.352 73.242V83H1.078V73.242H2.352ZM8.26131 75.188C9.19465 75.188 9.95065 75.4727 10.5293 76.042C11.108 76.602 11.3973 77.414 11.3973 78.478V83H10.1373V78.66C10.1373 77.8947 9.94598 77.3113 9.56331 76.91C9.18065 76.4993 8.65798 76.294 7.99531 76.294C7.32331 76.294 6.78665 76.504 6.38531 76.924C5.99331 77.344 5.79731 77.9553 5.79731 78.758V83H4.52331V75.328H5.79731V76.42C6.04931 76.028 6.38998 75.7247 6.81931 75.51C7.25798 75.2953 7.73865 75.188 8.26131 75.188ZM16.1944 83.126C15.6064 83.126 15.0791 83.028 14.6124 82.832C14.1457 82.6267 13.7771 82.3467 13.5064 81.992C13.2357 81.628 13.0864 81.2127 13.0584 80.746H14.3744C14.4117 81.1287 14.5891 81.4413 14.9064 81.684C15.2331 81.9267 15.6577 82.048 16.1804 82.048C16.6657 82.048 17.0484 81.9407 17.3284 81.726C17.6084 81.5113 17.7484 81.2407 17.7484 80.914C17.7484 80.578 17.5991 80.3307 17.3004 80.172C17.0017 80.004 16.5397 79.8407 15.9144 79.682C15.3451 79.5327 14.8784 79.3833 14.5144 79.234C14.1597 79.0753 13.8517 78.8467 13.5904 78.548C13.3384 78.24 13.2124 77.8387 13.2124 77.344C13.2124 76.952 13.3291 76.5927 13.5624 76.266C13.7957 75.9393 14.1271 75.6827 14.5564 75.496C14.9857 75.3 15.4757 75.202 16.0264 75.202C16.8757 75.202 17.5617 75.4167 18.0844 75.846C18.6071 76.2753 18.8871 76.8633 18.9244 77.61H17.6504C17.6224 77.2087 17.4591 76.8867 17.1604 76.644C16.8711 76.4013 16.4791 76.28 15.9844 76.28C15.5271 76.28 15.1631 76.378 14.8924 76.574C14.6217 76.77 14.4864 77.0267 14.4864 77.344C14.4864 77.596 14.5657 77.806 14.7244 77.974C14.8924 78.1327 15.0977 78.2633 15.3404 78.366C15.5924 78.4593 15.9377 78.5667 16.3764 78.688C16.9271 78.8373 17.3751 78.9867 17.7204 79.136C18.0657 79.276 18.3597 79.4907 18.6024 79.78C18.8544 80.0693 18.9851 80.4473 18.9944 80.914C18.9944 81.334 18.8777 81.712 18.6444 82.048C18.4111 82.384 18.0797 82.65 17.6504 82.846C17.2304 83.0327 16.7451 83.126 16.1944 83.126ZM22.3468 76.378V80.9C22.3468 81.2733 22.4262 81.5393 22.5848 81.698C22.7435 81.8473 23.0188 81.922 23.4108 81.922H24.3488V83H23.2008C22.4915 83 21.9595 82.8367 21.6048 82.51C21.2502 82.1833 21.0728 81.6467 21.0728 80.9V76.378H20.0788V75.328H21.0728V73.396H22.3468V75.328H24.3488V76.378H22.3468ZM25.4165 79.136C25.4165 78.352 25.5751 77.666 25.8925 77.078C26.2098 76.4807 26.6438 76.0187 27.1945 75.692C27.7545 75.3653 28.3751 75.202 29.0565 75.202C29.7285 75.202 30.3118 75.3467 30.8065 75.636C31.3011 75.9253 31.6698 76.2893 31.9125 76.728V75.328H33.2005V83H31.9125V81.572C31.6605 82.02 31.2825 82.3933 30.7785 82.692C30.2838 82.9813 29.7051 83.126 29.0425 83.126C28.3611 83.126 27.7451 82.958 27.1945 82.622C26.6438 82.286 26.2098 81.8147 25.8925 81.208C25.5751 80.6013 25.4165 79.9107 25.4165 79.136ZM31.9125 79.15C31.9125 78.5713 31.7958 78.0673 31.5625 77.638C31.3291 77.2087 31.0118 76.882 30.6105 76.658C30.2185 76.4247 29.7845 76.308 29.3085 76.308C28.8325 76.308 28.3985 76.42 28.0065 76.644C27.6145 76.868 27.3018 77.1947 27.0685 77.624C26.8351 78.0533 26.7185 78.5573 26.7185 79.136C26.7185 79.724 26.8351 80.2373 27.0685 80.676C27.3018 81.1053 27.6145 81.4367 28.0065 81.67C28.3985 81.894 28.8325 82.006 29.3085 82.006C29.7845 82.006 30.2185 81.894 30.6105 81.67C31.0118 81.4367 31.3291 81.1053 31.5625 80.676C31.7958 80.2373 31.9125 79.7287 31.9125 79.15ZM38.5174 75.202C39.1801 75.202 39.7587 75.3467 40.2534 75.636C40.7574 75.9253 41.1307 76.2893 41.3734 76.728V75.328H42.6614V83.168C42.6614 83.868 42.5121 84.4887 42.2134 85.03C41.9147 85.5807 41.4854 86.01 40.9254 86.318C40.3747 86.626 39.7307 86.78 38.9934 86.78C37.9854 86.78 37.1454 86.542 36.4734 86.066C35.8014 85.59 35.4047 84.9413 35.2834 84.12H36.5434C36.6834 84.5867 36.9727 84.96 37.4114 85.24C37.8501 85.5293 38.3774 85.674 38.9934 85.674C39.6934 85.674 40.2627 85.4547 40.7014 85.016C41.1494 84.5773 41.3734 83.9613 41.3734 83.168V81.558C41.1214 82.006 40.7481 82.3793 40.2534 82.678C39.7587 82.9767 39.1801 83.126 38.5174 83.126C37.8361 83.126 37.2154 82.958 36.6554 82.622C36.1047 82.286 35.6707 81.8147 35.3534 81.208C35.0361 80.6013 34.8774 79.9107 34.8774 79.136C34.8774 78.352 35.0361 77.666 35.3534 77.078C35.6707 76.4807 36.1047 76.0187 36.6554 75.692C37.2154 75.3653 37.8361 75.202 38.5174 75.202ZM41.3734 79.15C41.3734 78.5713 41.2567 78.0673 41.0234 77.638C40.7901 77.2087 40.4727 76.882 40.0714 76.658C39.6794 76.4247 39.2454 76.308 38.7694 76.308C38.2934 76.308 37.8594 76.42 37.4674 76.644C37.0754 76.868 36.7627 77.1947 36.5294 77.624C36.2961 78.0533 36.1794 78.5573 36.1794 79.136C36.1794 79.724 36.2961 80.2373 36.5294 80.676C36.7627 81.1053 37.0754 81.4367 37.4674 81.67C37.8594 81.894 38.2934 82.006 38.7694 82.006C39.2454 82.006 39.6794 81.894 40.0714 81.67C40.4727 81.4367 40.7901 81.1053 41.0234 80.676C41.2567 80.2373 41.3734 79.7287 41.3734 79.15ZM46.0883 76.574C46.3123 76.1353 46.6297 75.7947 47.0403 75.552C47.4603 75.3093 47.969 75.188 48.5663 75.188V76.504H48.2303C46.8023 76.504 46.0883 77.2787 46.0883 78.828V83H44.8143V75.328H46.0883V76.574ZM49.561 79.136C49.561 78.352 49.7197 77.666 50.037 77.078C50.3543 76.4807 50.7883 76.0187 51.339 75.692C51.899 75.3653 52.5197 75.202 53.201 75.202C53.873 75.202 54.4563 75.3467 54.951 75.636C55.4457 75.9253 55.8143 76.2893 56.057 76.728V75.328H57.345V83H56.057V81.572C55.805 82.02 55.427 82.3933 54.923 82.692C54.4283 82.9813 53.8497 83.126 53.187 83.126C52.5057 83.126 51.8897 82.958 51.339 82.622C50.7883 82.286 50.3543 81.8147 50.037 81.208C49.7197 80.6013 49.561 79.9107 49.561 79.136ZM56.057 79.15C56.057 78.5713 55.9403 78.0673 55.707 77.638C55.4737 77.2087 55.1563 76.882 54.755 76.658C54.363 76.4247 53.929 76.308 53.453 76.308C52.977 76.308 52.543 76.42 52.151 76.644C51.759 76.868 51.4463 77.1947 51.213 77.624C50.9797 78.0533 50.863 78.5573 50.863 79.136C50.863 79.724 50.9797 80.2373 51.213 80.676C51.4463 81.1053 51.759 81.4367 52.151 81.67C52.543 81.894 52.977 82.006 53.453 82.006C53.929 82.006 54.363 81.894 54.755 81.67C55.1563 81.4367 55.4737 81.1053 55.707 80.676C55.9403 80.2373 56.057 79.7287 56.057 79.15ZM68.7239 75.188C69.3213 75.188 69.8533 75.314 70.3199 75.566C70.7866 75.8087 71.1553 76.1773 71.4259 76.672C71.6966 77.1667 71.8319 77.7687 71.8319 78.478V83H70.5719V78.66C70.5719 77.8947 70.3806 77.3113 69.9979 76.91C69.6246 76.4993 69.1159 76.294 68.4719 76.294C67.8093 76.294 67.2819 76.5087 66.8899 76.938C66.4979 77.358 66.3019 77.9693 66.3019 78.772V83H65.0419V78.66C65.0419 77.8947 64.8506 77.3113 64.4679 76.91C64.0946 76.4993 63.5859 76.294 62.9419 76.294C62.2793 76.294 61.7519 76.5087 61.3599 76.938C60.9679 77.358 60.7719 77.9693 60.7719 78.772V83H59.4979V75.328H60.7719V76.434C61.0239 76.0327 61.3599 75.7247 61.7799 75.51C62.2093 75.2953 62.6806 75.188 63.1939 75.188C63.8379 75.188 64.4073 75.3327 64.9019 75.622C65.3966 75.9113 65.7653 76.336 66.0079 76.896C66.2226 76.3547 66.5773 75.9347 67.0719 75.636C67.5666 75.3373 68.1173 75.188 68.7239 75.188ZM2.716 113.736C2.19333 113.531 1.792 113.232 1.512 112.84C1.232 112.448 1.092 111.972 1.092 111.412C1.092 110.908 1.218 110.455 1.47 110.054C1.722 109.643 2.09533 109.321 2.59 109.088C3.094 108.845 3.70067 108.724 4.41 108.724C5.11933 108.724 5.72133 108.845 6.216 109.088C6.72 109.321 7.098 109.643 7.35 110.054C7.61133 110.455 7.742 110.908 7.742 111.412C7.742 111.953 7.59733 112.429 7.308 112.84C7.01867 113.241 6.622 113.54 6.118 113.736C6.69667 113.913 7.154 114.226 7.49 114.674C7.83533 115.113 8.008 115.645 8.008 116.27C8.008 116.877 7.85867 117.409 7.56 117.866C7.26133 118.314 6.83667 118.664 6.286 118.916C5.74467 119.159 5.11933 119.28 4.41 119.28C3.70067 119.28 3.07533 119.159 2.534 118.916C2.002 118.664 1.58667 118.314 1.288 117.866C0.989333 117.409 0.84 116.877 0.84 116.27C0.84 115.645 1.008 115.108 1.344 114.66C1.68 114.212 2.13733 113.904 2.716 113.736ZM6.51 111.566C6.51 110.997 6.32333 110.558 5.95 110.25C5.57667 109.942 5.06333 109.788 4.41 109.788C3.766 109.788 3.25733 109.942 2.884 110.25C2.51067 110.558 2.324 111.001 2.324 111.58C2.324 112.103 2.51533 112.523 2.898 112.84C3.29 113.157 3.794 113.316 4.41 113.316C5.03533 113.316 5.53933 113.157 5.922 112.84C6.314 112.513 6.51 112.089 6.51 111.566ZM4.41 114.296C3.71933 114.296 3.15467 114.459 2.716 114.786C2.27733 115.103 2.058 115.584 2.058 116.228C2.058 116.825 2.268 117.306 2.688 117.67C3.11733 118.034 3.69133 118.216 4.41 118.216C5.12867 118.216 5.698 118.034 6.118 117.67C6.538 117.306 6.748 116.825 6.748 116.228C6.748 115.603 6.53333 115.127 6.104 114.8C5.67467 114.464 5.11 114.296 4.41 114.296ZM16.154 109.984H11.24V113.176C11.4547 112.877 11.772 112.635 12.192 112.448C12.612 112.252 13.0647 112.154 13.55 112.154C14.3247 112.154 14.9547 112.317 15.44 112.644C15.9254 112.961 16.2707 113.377 16.476 113.89C16.6907 114.394 16.798 114.931 16.798 115.5C16.798 116.172 16.672 116.774 16.42 117.306C16.168 117.838 15.7807 118.258 15.258 118.566C14.7447 118.874 14.1054 119.028 13.34 119.028C12.36 119.028 11.5667 118.776 10.96 118.272C10.3534 117.768 9.9847 117.096 9.85403 116.256H11.1C11.2214 116.788 11.478 117.203 11.87 117.502C12.262 117.801 12.7567 117.95 13.354 117.95C14.0914 117.95 14.6467 117.731 15.02 117.292C15.3934 116.844 15.58 116.256 15.58 115.528C15.58 114.8 15.3934 114.24 15.02 113.848C14.6467 113.447 14.096 113.246 13.368 113.246C12.8734 113.246 12.4394 113.367 12.066 113.61C11.702 113.843 11.436 114.165 11.268 114.576H10.064V108.864H16.154V109.984ZM18.155 110.04V108.878H20.787V119H19.499V110.04H18.155ZM22.9754 113.834C22.9754 112.229 23.2368 110.978 23.7594 110.082C24.2821 109.177 25.1968 108.724 26.5034 108.724C27.8008 108.724 28.7108 109.177 29.2334 110.082C29.7561 110.978 30.0174 112.229 30.0174 113.834C30.0174 115.467 29.7561 116.737 29.2334 117.642C28.7108 118.547 27.8008 119 26.5034 119C25.1968 119 24.2821 118.547 23.7594 117.642C23.2368 116.737 22.9754 115.467 22.9754 113.834ZM28.7574 113.834C28.7574 113.022 28.7014 112.336 28.5894 111.776C28.4868 111.207 28.2674 110.749 27.9314 110.404C27.6048 110.059 27.1288 109.886 26.5034 109.886C25.8688 109.886 25.3834 110.059 25.0474 110.404C24.7208 110.749 24.5014 111.207 24.3894 111.776C24.2868 112.336 24.2354 113.022 24.2354 113.834C24.2354 114.674 24.2868 115.379 24.3894 115.948C24.5014 116.517 24.7208 116.975 25.0474 117.32C25.3834 117.665 25.8688 117.838 26.5034 117.838C27.1288 117.838 27.6048 117.665 27.9314 117.32C28.2674 116.975 28.4868 116.517 28.5894 115.948C28.7014 115.379 28.7574 114.674 28.7574 113.834ZM33.4044 116.284C33.4978 116.816 33.7124 117.227 34.0484 117.516C34.3938 117.805 34.8558 117.95 35.4344 117.95C36.2091 117.95 36.7784 117.647 37.1424 117.04C37.5158 116.433 37.6931 115.411 37.6744 113.974C37.4784 114.394 37.1518 114.725 36.6944 114.968C36.2371 115.201 35.7284 115.318 35.1684 115.318C34.5431 115.318 33.9831 115.192 33.4884 114.94C33.0031 114.679 32.6204 114.301 32.3404 113.806C32.0604 113.311 31.9204 112.714 31.9204 112.014C31.9204 111.015 32.2098 110.213 32.7884 109.606C33.3671 108.99 34.1884 108.682 35.2524 108.682C36.5591 108.682 37.4738 109.107 37.9964 109.956C38.5284 110.805 38.7944 112.07 38.7944 113.75C38.7944 114.926 38.6871 115.897 38.4724 116.662C38.2671 117.427 37.9124 118.011 37.4084 118.412C36.9138 118.813 36.2324 119.014 35.3644 119.014C34.4124 119.014 33.6704 118.757 33.1384 118.244C32.6064 117.731 32.3031 117.077 32.2284 116.284H33.4044ZM35.3784 114.24C36.0038 114.24 36.5171 114.049 36.9184 113.666C37.3198 113.274 37.5204 112.747 37.5204 112.084C37.5204 111.384 37.3244 110.819 36.9324 110.39C36.5404 109.961 35.9898 109.746 35.2804 109.746C34.6271 109.746 34.1044 109.951 33.7124 110.362C33.3298 110.773 33.1384 111.314 33.1384 111.986C33.1384 112.667 33.3298 113.213 33.7124 113.624C34.0951 114.035 34.6504 114.24 35.3784 114.24ZM47.0388 109.984H42.1248V113.176C42.3395 112.877 42.6568 112.635 43.0768 112.448C43.4968 112.252 43.9495 112.154 44.4348 112.154C45.2095 112.154 45.8395 112.317 46.3248 112.644C46.8101 112.961 47.1555 113.377 47.3608 113.89C47.5755 114.394 47.6828 114.931 47.6828 115.5C47.6828 116.172 47.5568 116.774 47.3048 117.306C47.0528 117.838 46.6655 118.258 46.1428 118.566C45.6295 118.874 44.9901 119.028 44.2248 119.028C43.2448 119.028 42.4515 118.776 41.8448 118.272C41.2381 117.768 40.8695 117.096 40.7388 116.256H41.9848C42.1061 116.788 42.3628 117.203 42.7548 117.502C43.1468 117.801 43.6415 117.95 44.2388 117.95C44.9761 117.95 45.5315 117.731 45.9048 117.292C46.2781 116.844 46.4648 116.256 46.4648 115.528C46.4648 114.8 46.2781 114.24 45.9048 113.848C45.5315 113.447 44.9808 113.246 44.2528 113.246C43.7581 113.246 43.3241 113.367 42.9508 113.61C42.5868 113.843 42.3208 114.165 42.1528 114.576H40.9488V108.864H47.0388V109.984ZM55.6058 109.872L51.7138 119H50.4258L54.3738 109.998H48.9698V108.906H55.6058V109.872ZM56.9904 111.426C57.0557 110.567 57.3871 109.895 57.9844 109.41C58.5817 108.925 59.3564 108.682 60.3084 108.682C60.9431 108.682 61.4891 108.799 61.9464 109.032C62.4131 109.256 62.7631 109.564 62.9964 109.956C63.2391 110.348 63.3604 110.791 63.3604 111.286C63.3604 111.865 63.1924 112.364 62.8564 112.784C62.5297 113.204 62.1004 113.475 61.5684 113.596V113.666C62.1751 113.815 62.6557 114.109 63.0104 114.548C63.3651 114.987 63.5424 115.561 63.5424 116.27C63.5424 116.802 63.4211 117.283 63.1784 117.712C62.9357 118.132 62.5717 118.463 62.0864 118.706C61.6011 118.949 61.0177 119.07 60.3364 119.07C59.3471 119.07 58.5351 118.813 57.9004 118.3C57.2657 117.777 56.9111 117.04 56.8364 116.088H58.0684C58.1337 116.648 58.3624 117.105 58.7544 117.46C59.1464 117.815 59.6691 117.992 60.3224 117.992C60.9757 117.992 61.4704 117.824 61.8064 117.488C62.1517 117.143 62.3244 116.699 62.3244 116.158C62.3244 115.458 62.0911 114.954 61.6244 114.646C61.1577 114.338 60.4531 114.184 59.5104 114.184H59.1884V113.12H59.5244C60.3831 113.111 61.0317 112.971 61.4704 112.7C61.9091 112.42 62.1284 111.991 62.1284 111.412C62.1284 110.917 61.9651 110.521 61.6384 110.222C61.3211 109.923 60.8637 109.774 60.2664 109.774C59.6877 109.774 59.2211 109.923 58.8664 110.222C58.5117 110.521 58.3017 110.922 58.2364 111.426H56.9904ZM71.4925 109.872L67.6005 119H66.3125L70.2605 109.998H64.8565V108.906H71.4925V109.872ZM78.5471 111.286C78.3418 110.25 77.7024 109.732 76.6291 109.732C75.7984 109.732 75.1778 110.054 74.7671 110.698C74.3564 111.333 74.1558 112.383 74.1651 113.848C74.3798 113.363 74.7344 112.985 75.2291 112.714C75.7331 112.434 76.2931 112.294 76.9091 112.294C77.8704 112.294 78.6358 112.593 79.2051 113.19C79.7838 113.787 80.0731 114.613 80.0731 115.668C80.0731 116.303 79.9471 116.872 79.6951 117.376C79.4524 117.88 79.0791 118.281 78.5751 118.58C78.0804 118.879 77.4784 119.028 76.7691 119.028C75.8078 119.028 75.0564 118.813 74.5151 118.384C73.9738 117.955 73.5958 117.362 73.3811 116.606C73.1664 115.85 73.0591 114.917 73.0591 113.806C73.0591 110.381 74.2538 108.668 76.6431 108.668C77.5578 108.668 78.2764 108.915 78.7991 109.41C79.3218 109.905 79.6298 110.53 79.7231 111.286H78.5471ZM76.6431 113.372C76.2418 113.372 75.8638 113.456 75.5091 113.624C75.1544 113.783 74.8651 114.03 74.6411 114.366C74.4264 114.693 74.3191 115.094 74.3191 115.57C74.3191 116.279 74.5244 116.858 74.9351 117.306C75.3458 117.745 75.9338 117.964 76.6991 117.964C77.3524 117.964 77.8704 117.763 78.2531 117.362C78.6451 116.951 78.8411 116.401 78.8411 115.71C78.8411 114.982 78.6544 114.413 78.2811 114.002C77.9078 113.582 77.3618 113.372 76.6431 113.372Z" fill="#666666"/>
</svg>
